<svg xmlns="http://www.w3.org/2000/svg" width="360" height="800" viewBox="0 0 360 800">
<rect x="0" y="0" width="360" height="800" fill="#0B1220"/>
<rect x="0" y="0" width="360" height="56" fill="#121A2A"/>
<text x="16" y="36" fill="#E5E7EB" font-size="18" font-family="Inter" font-weight="600">EditProfile</text>
<rect x="16" y="72" rx="12" ry="12" width="328" height="64" fill="#121A2A" stroke="#1F2A40"/>
<text x="28" y="110" fill="#94A3B8" font-size="14" font-family="Inter">Age</text>
<rect x="16" y="148" rx="12" ry="12" width="328" height="64" fill="#121A2A" stroke="#1F2A40"/>
<text x="28" y="186" fill="#94A3B8" font-size="14" font-family="Inter">Height</text>
<rect x="16" y="224" rx="12" ry="12" width="328" height="64" fill="#121A2A" stroke="#1F2A40"/>
<text x="28" y="262" fill="#94A3B8" font-size="14" font-family="Inter">Weight</text>
<rect x="16" y="300" rx="12" ry="12" width="328" height="64" fill="#121A2A" stroke="#1F2A40"/>
<text x="28" y="338" fill="#94A3B8" font-size="14" font-family="Inter">Gender</text>
<rect x="16" y="376" rx="12" ry="12" width="328" height="64" fill="#121A2A" stroke="#1F2A40"/>
<text x="28" y="414" fill="#94A3B8" font-size="14" font-family="Inter">Workout Days</text>
<rect x="16" y="452" rx="12" ry="12" width="328" height="64" fill="#121A2A" stroke="#1F2A40"/>
<text x="28" y="490" fill="#94A3B8" font-size="14" font-family="Inter">Location</text>
<rect x="16" y="528" rx="12" ry="12" width="328" height="64" fill="#121A2A" stroke="#1F2A40"/>
<text x="28" y="566" fill="#94A3B8" font-size="14" font-family="Inter">Experience</text>
<rect x="16" y="604" rx="12" ry="12" width="328" height="64" fill="#121A2A" stroke="#1F2A40"/>
<text x="28" y="642" fill="#94A3B8" font-size="14" font-family="Inter">Submit</text>
<rect x="0" y="744" width="360" height="56" fill="#121A2A"/>
<text x="18" y="778" fill="#94A3B8" font-size="12" font-family="Inter">Home</text>
<text x="88" y="778" fill="#94A3B8" font-size="12" font-family="Inter">Workout</text>
<text x="158" y="778" fill="#94A3B8" font-size="12" font-family="Inter">Coach</text>
<text x="228" y="778" fill="#94A3B8" font-size="12" font-family="Inter">Nutrition</text>
<text x="298" y="778" fill="#94A3B8" font-size="12" font-family="Inter">Account</text>
</svg>